<?xml version="1.0" standalone="no"?>
<!DOCTYPE svg PUBLIC "-//W3C//DTD SVG 1.1//EN" "http://www.w3.org/Graphics/SVG/1.1/DTD/svg11.dtd" >
<svg xmlns="http://www.w3.org/2000/svg">
<metadata>Generated by IcoMoon</metadata>
<defs>
<font id="firstnoodle" horiz-adv-x="1024">
<font-face units-per-em="1024" ascent="960" descent="-64" />
<missing-glyph horiz-adv-x="1024" />
<glyph unicode="&#x20;" horiz-adv-x="512" d="" />
<glyph unicode="&#xe901;" glyph-name="angle-double-left" d="M557.255 64l-45.255-45.255-429.255 429.255 429.255 429.255 45.255-45.255-383.943-384zM877.255 64l-45.255-45.255-429.255 429.255 429.255 429.255 45.255-45.255-384.007-384z" />
<glyph unicode="&#xe902;" glyph-name="angle-double-right" d="M146.745 64l45.255-45.255 429.255 429.255-429.255 429.255-45.255-45.255 383.943-384zM466.745 64l45.255-45.255 429.255 429.255-429.255 429.255-45.255-45.255 384.007-384z" />
<glyph unicode="&#xe903;" glyph-name="angle-down" d="M128 685.255l-45.255-45.255 429.255-429.255 429.255 429.255-45.255 45.255-384-384.007z" />
<glyph unicode="&#xe904;" glyph-name="angle-left" d="M749.255 64l-45.255-45.255-429.255 429.255 429.255 429.255 45.255-45.255-384.007-384z" />
<glyph unicode="&#xe905;" glyph-name="angle-right" d="M274.745 64l45.255-45.255 429.255 429.255-429.255 429.255-45.255-45.255 384.007-384z" />
<glyph unicode="&#xe906;" glyph-name="angle-up" d="M128 210.745l-45.255 45.255 429.255 429.255 429.255-429.255-45.255-45.255-384 384.007z" />
<glyph unicode="&#xe907;" glyph-name="arrow-down" d="M544 832l-0.007-626.624 224.007 223.879 45.255-45.255-301.255-301.255-301.255 301.255 45.255 45.255 223.993-224.007 0.007 626.752z" />
<glyph unicode="&#xe908;" glyph-name="arrow-fat-down" d="M960 512l-448-576-448 576h256l64 448h256l64-448h256zM829.184 448.064l-180.691-0.064-63.917 448-145.088 0.064-63.981-448.064-180.627 0.064 317.12-407.808 317.184 407.808z" />
<glyph unicode="&#xe909;" glyph-name="arrow-fat-left" d="M576 0l-576 448 576 448v-256l448-64v-256l-448-64v-256zM512 130.816v180.691l448 63.917v145.088l-448 63.981v180.627l-407.744-317.12 407.744-317.184z" />
<glyph unicode="&#xe90a;" glyph-name="arrow-fat-right" d="M448 896l576-448-576-448v256l-448 64v256l448 64v256zM512 765.184v-180.691l-448-63.917v-145.088l448-63.981v-180.627l407.744 317.12-407.744 317.184z" />
<glyph unicode="&#xe90b;" glyph-name="arrow-fat-up" d="M64 384l448 576 448-576h-256l-64-448h-256l-64 448h-256zM194.816 448h180.691l63.917-448h145.088l63.981 448h180.627l-317.12 407.744-317.184-407.744z" />
<glyph unicode="&#xe90c;" glyph-name="arrow-left" d="M448 749.255l45.255-45.255-224.078-223.993 626.823-0.007v-64l-626.695 0.007 223.95-224.007-45.255-45.255-301.255 301.255z" />
<glyph unicode="&#xe90d;" glyph-name="arrow-right" d="M576 749.255l301.255-301.255-301.255-301.255-45.255 45.255 223.943 224.007-626.688-0.007v64l626.688 0.007-223.943 223.993z" />
<glyph unicode="&#xe90e;" glyph-name="arrow-up" d="M512 813.255l301.255-301.255-45.255-45.255-224.007 224.014 0.007-626.759h-64l-0.007 626.759-223.993-224.014-45.255 45.255z" />
<glyph unicode="&#xe90f;" glyph-name="beams" d="M256 384c-106.039 0-192-85.961-192-192s85.961-192 192-192c106.039 0 192 85.961 192 192s-85.961 192-192 192zM256 320c70.692 0 128-57.308 128-128s-57.308-128-128-128c-70.692 0-128 57.308-128 128s57.308 128 128 128zM224 608c242.269 0 439.622-192.306 447.74-432.598l0.26-15.402v-32h-64v32c0 207.257-164.197 376.165-369.604 383.735l-14.396 0.265h-32v64h32zM256 864c365.051 0 662.117-291.081 671.758-653.805l0.242-18.195v-32h-64v32c0 330-262.905 598.595-590.689 607.758l-17.311 0.242h-32v64h32z" />
<glyph unicode="&#xe910;" glyph-name="bell" d="M512 960c35.346 0 64-28.654 64-64l-0.308-6.321c142.205-28.258 249.427-149.882 255.99-299.15l0.342-17.599 1.188-32.216 1.534-23.328c0.31-4.039 0.647-8.151 1.014-12.33 4.704-53.629 13.164-107.204 26.236-156.88 24.763-94.098 62.957-161.83 114.469-192.737 26.091-15.654 17.316-54.199-10.625-58.956l-5.839-0.484-258.662-0.045c-15.253-90.785-94.218-159.955-189.338-159.955s-174.085 69.171-189.338 159.955l-258.662 0.045c-32.455 0-44.294 42.742-16.464 59.44 51.512 30.907 89.707 98.639 114.469 192.737 13.073 49.676 21.532 103.25 26.236 156.88 1.1 12.537 1.937 24.469 2.547 35.658l0.968 22.634 0.537 26.603c6.31 149.523 113.614 271.421 256.019 299.802l-0.313 6.247c0 35.346 28.654 64 64 64zM635.84 96h-247.744l1.323-4.968c13.982-46.427 53.619-81.738 102.433-89.455l10.595-1.225 9.553-0.351c54.224 0 100.574 33.717 119.225 81.33l3.355 9.702 1.259 4.968zM512 832c-138.014 0-249.084-106.888-255.689-243.142l-0.819-34.338c-0.626-16.644-1.749-35.147-3.496-55.055-4.998-56.98-14.004-114.015-28.098-167.575-14.959-56.845-34.614-106.164-59.833-146.208l-9.72-14.578-8.297-11.040h731.84l-8.233 11.040c-23.588 33.398-42.722 74.247-58.007 121.331l-6.317 20.557-5.228 18.897c-14.095 53.56-23.1 110.594-28.098 167.575-1.164 13.272-2.052 25.92-2.699 37.808l-0.796 17.247-0.819 34.338c-6.605 136.254-117.675 243.142-255.689 243.142z" />
<glyph unicode="&#xe912;" glyph-name="building" d="M896 960v-960h128v-64h-1024v64h128v960h768zM832 896.064h-640v-896h128v127.936h-64v64h512v-64h-64v-127.936h128v896zM480 128h-96v-127.936h96v127.936zM640 128h-96v-127.936h96v127.936zM576 384v-64h-128v64h128zM384 384v-64h-128v64h128zM768 384v-64h-128v64h128zM576 576v-64h-128v64h128zM384 576v-64h-128v64h128zM768 576v-64h-128v64h128zM576 768v-64h-128v64h128zM384 768v-64h-128v64h128zM768 768v-64h-128v64h128z" />
<glyph unicode="&#xe913;" glyph-name="calendar" d="M1024 832v-896h-1024v896h1024zM959.936 768h-895.936v-767.936h896l-0.064 767.936zM320 960v-128h-64v128zM768 960v-128h-64v128zM960 576v-64h-896v64zM320 384v-64h-128v64zM576 384v-64h-128v64zM832 384v-64h-128v64zM320 192v-64h-128v64zM576 192v-64h-128v64zM832 192v-64h-128v64z" />
<glyph unicode="&#xe914;" glyph-name="categories" d="M320 256v-256h-256v256h256zM640 256v-256h-256v256h256zM960 256v-256h-256v256h256zM256 192h-128v-128h128v128zM576 192h-128v-128h128v128zM896 192h-128v-128h128v128zM320 576v-256h-256v256h256zM640 576v-256h-256v256h256zM960 576v-256h-256v256h256zM256 512h-128v-128h128v128zM576 512h-128v-128h128v128zM896 512h-128v-128h128v128zM320 896v-256h-256v256h256zM640 896v-256h-256v256h256zM960 896v-256h-256v256h256zM256 832h-128v-128h128v128zM576 832h-128v-128h128v128zM896 832h-128v-128h128v128z" />
<glyph unicode="&#xe915;" glyph-name="check-outline" d="M1004.612 632.502l-574.714-574.714-410.51 410.51 164.204 164.204 246.306-246.306 410.51 410.51 164.204-164.204zM914.089 632.538l-73.675 73.675-410.516-410.526-246.312 246.341-73.675-73.675 319.997-319.997 484.181 484.181z" />
<glyph unicode="&#xe916;" glyph-name="check" d="M914.966 758.627l45.255-45.255-512.469-512.469-313.797 320.717 45.746 44.759 268.491-274.475z" />
<glyph unicode="&#xe917;" glyph-name="close-outline" d="M763.789 861.255l-251.789-251.783-251.789 251.783-161.465-161.465 251.783-251.789-251.783-251.789 161.465-161.465 251.789 251.783 251.789-251.783 161.465 161.465-251.783 251.789 251.783 251.789-161.465 161.465zM763.776 770.752l70.976-70.976-251.796-251.776 251.796-251.776-70.976-70.976-251.776 251.796-251.776-251.796-70.976 70.976 251.796 251.776-251.796 251.776 70.976 70.976 251.776-251.796 251.776 251.796z" />
<glyph unicode="&#xe918;" glyph-name="close" d="M745.373 726.627l45.255-45.255-233.351-233.401 233.351-233.344-45.255-45.255-233.344 233.351-233.401-233.351-45.255 45.255 233.408 233.344-233.408 233.401 45.255 45.255 233.401-233.408z" />
<glyph unicode="&#xe919;" glyph-name="cog" d="M462.532 960l-6.091-0.486c-15.911-2.562-28.855-15.015-31.41-31.618l-16.071-94.040-20.552-6.056c-21.042-6.794-41.706-15.511-61.614-25.981l-18.762-10.523-77.2 55.013c-5.764 4.334-13.593 7.075-21.966 7.075-9.511 0-19.037-3.297-26.919-11.18l-67.313-67.313-4.357-5.222c-8.917-12.897-9.064-30.357 0.091-43.436l55.84-78.553-10.076-18.396c-10.124-19.798-18.572-40.581-25.269-62.076l-5.806-20.648-93.384-15.726c-18.246-2.804-31.672-18.828-31.672-37.431v-95.096l0.486-6.091c2.562-15.911 15.015-28.855 31.618-31.41l94.040-16.037 6.056-20.586c6.794-21.042 15.511-41.706 25.981-61.614l10.523-18.728-55.013-77.234c-10.412-16.279-8.768-36.013 4.105-48.886l67.313-67.313c7.963-7.963 17.612-11.18 26.919-11.18l5.548 0.401c5.314 0.787 9.966 2.686 14.304 5.289l80.376 57.098 18.631-10.031c19.539-9.886 39.744-18.171 60.385-24.739l19.672-5.614 15.731-93.923c2.81-18.283 18.834-31.709 37.438-31.709h95.096l6.091 0.486c15.911 2.562 28.855 15.015 31.41 31.618l15.834 93.528 20.45 5.828c21.496 6.85 42.211 15.44 62.012 25.729l18.593 10.363 77.556-55.231c5.742-4.319 13.572-7.060 21.945-7.060 9.511 0 19.037 3.297 26.919 11.18l67.313 67.313 4.357 5.222c8.917 12.897 9.064 30.357-0.091 43.436l-55.343 78.052 10.381 18.616c10.249 19.729 18.822 40.404 25.646 61.8l5.893 20.64 93.889 15.607c17.642 2.712 30.502 17.581 31.84 34.983l0.094 97.551-0.486 6.091c-2.562 15.911-15.015 28.855-31.618 31.41l-93.528 15.894-5.828 20.39c-6.85 21.496-15.44 42.211-25.729 62.012l-10.363 18.653 55.231 77.496c10.397 16.258 8.752 35.992-4.12 48.864l-67.313 67.313c-7.963 7.963-17.612 11.18-26.919 11.18l-5.548-0.401c-5.314-0.787-9.966-2.686-14.304-5.289l-79.299-56.827-19.162 10.635c-20.282 10.438-41.425 19.11-63.253 25.945l-21.073 5.916-15.628 93.384c-2.804 18.246-18.828 31.672-37.431 31.672h-95.096zM484.48 896h51.072l12.202-72.46c4.165-24.529 22.285-44.343 46.386-50.368 31.14-7.837 60.819-20.009 88.413-36.277l7.27-3.664c19.81-8.438 42.675-6.215 60.617 6.426l60.12 43.319 36.16-36.16-42.973-60.476c-14.332-19.879-15.378-46.672-2.883-67.96 16.002-26.876 28.012-55.866 35.919-86.455l2.5-7.758c7.981-20.063 26.197-34.868 48.011-38.224l72.706-12.28v-50.944l-73.327-12.275c-24.475-4.156-44.065-22.179-50.143-46.023-7.881-30.485-19.891-59.474-35.79-86.178l-3.685-7.306c-8.487-19.894-6.264-42.759 6.376-60.701l43.097-60.67-36.224-36.288-60.415 42.973c-19.879 14.332-46.672 15.378-67.96 2.883-26.876-16.002-55.866-28.012-86.455-35.919l-7.758-2.5c-20.063-7.981-34.868-26.197-38.224-48.011l-12.34-72.706h-51.008l-12.151 73.101c-4.156 24.475-22.179 44.065-46.023 50.143-29.142 7.54-57.675 19.256-84.593 34.697-9.573 5.47-20.453 8.309-31.283 8.309l-7.79-0.482c-10.326-1.284-20.315-5.123-28.849-11.431l-60.671-43.104-36.224 36.224 42.808 59.923c14.326 20.333 15.361 46.974 2.898 68.207-16.391 27.322-28.648 56.354-36.371 86.229l-2.65 7.736c-8.272 19.971-25.941 34.457-47.269 38.149l-73.975 12.587v51.072l72.46 12.169c24.529 4.165 44.343 22.285 50.368 46.386 7.724 30.687 19.56 59.861 35.169 86.416l3.663 7.289c8.406 19.867 5.948 42.835-6.873 60.619l-43.362 60.978 36.224 36.224 59.957-42.808c20.333-14.326 46.974-15.361 68.207-2.898 27.322 16.391 56.354 28.648 86.229 36.371l7.736 2.65c19.971 8.272 34.457 25.941 38.149 47.269l12.553 73.975zM512 640c-106.039 0-192-85.961-192-192s85.961-192 192-192c106.039 0 192 85.961 192 192s-85.961 192-192 192zM512 576c70.692 0 128-57.308 128-128s-57.308-128-128-128c-70.692 0-128 57.308-128 128s57.308 128 128 128z" />
<glyph unicode="&#xe91a;" glyph-name="columns" d="M320 832v-768h-256v768h256zM640 832v-768h-256v768h256zM960 832v-768h-256v768h256zM256 768h-128v-640h128v640zM576 768h-128v-640h128v640zM896 768h-128v-640h128v640z" />
<glyph unicode="&#xe91c;" glyph-name="copy" d="M768 960v-768h-768v768h768zM704 896h-640v-640h640v640zM1024 768v-832h-832v192h64v-128h704v704h-128v64z" />
<glyph unicode="&#xe91e;" glyph-name="crosshair" d="M544 960l0.021-97.214c204.241-15.547 367.253-178.579 382.77-382.829l97.209 0.043v-64l-97.214-0.021c-15.546-204.22-178.545-367.219-382.765-382.765l-0.021-97.214h-64l0.043 97.209c-204.25 15.516-367.281 178.528-382.829 382.77l-97.214 0.021v64l97.209-0.043c15.518 204.271 178.562 367.316 382.834 382.834l-0.043 97.209h64zM544.039 798.567l-0.039-94.567h-64l0.025 94.567c-168.889-15.207-303.385-149.704-318.592-318.592l94.567 0.025v-64l-94.567-0.039c15.241-168.858 149.725-303.323 318.592-318.528l-0.025 94.567h64l0.039-94.567c168.837 15.239 303.289 149.691 318.528 318.528l-94.567 0.039v64l94.567-0.025c-14.758 163.9-141.863 295.411-303.72 316.935l-14.808 1.657z" />
<glyph unicode="&#xe91f;" glyph-name="dashboard" d="M512 736c259.899 0 471.553-206.558 479.753-464.465l0.247-15.535v-32h-192v64h126.72l-1.057 12.357c-9.111 85.958-44.401 164.102-97.747 226.309l-101.288-101.292-45.255 45.255 101.271 101.306c-65.158 55.87-147.8 91.932-238.591 98.85l-0.053-126.783h-64l0.046 126.791c-90.823-6.899-173.497-42.962-238.677-98.846l254.069-254.109c5.283 1.411 10.834 2.164 16.562 2.164 35.346 0 64-28.654 64-64s-28.654-64-64-64c-35.346 0-64 28.654-64 64 0 5.727 0.752 11.279 2.164 16.562l-254.089 254.092c-53.34-62.205-88.627-140.344-97.737-226.297l-1.121-12.357h126.784v-64h-192v32c0 265.097 214.903 480 480 480z" />
<glyph unicode="&#xe920;" glyph-name="delta" d="M585.143 896l438.857-821.333v-74.667h-1024l475.429 896h109.714zM505.6 832l-409.6-768h800l-390.4 768z" />
<glyph unicode="&#xe921;" glyph-name="deviation" d="M288 813.255l173.255-173.255-45.255-45.255-96.007 96.014v-393.152l381.837 136.335 0.051 190.769-93.881-93.966-45.255 45.255 173.255 173.255 173.255-173.255-45.255-45.255-98.119 98.126 0.013-239.992-445.901-159.24 0.007-197.639h-64l-0.007 658.887-95.993-96.142-45.255 45.255z" />
<glyph unicode="&#xe923;" glyph-name="edit" d="M735.992 909.241l237.274-237.042-128.146-128.078 0.362-0.348-45.255-45.255-0.355 0.355-466.752-466.752 0.362-0.348-45.255-45.255-0.355 0.355-50.617-50.685h-237.255v237.257l735.992 735.796zM95.808 178.937l-31.808-31.929v-146.816h146.688l31.872 31.993-146.752 146.752zM607.872 690.873l-466.816-466.688 146.752-146.752 466.752 466.752-146.688 146.688zM736 818.816l-82.88-82.695 146.688-146.688 82.88 82.759-146.688 146.624zM896 0v-64h-448v64z" />
<glyph unicode="&#xe924;" glyph-name="error" d="M512 896c247.424 0 448-200.576 448-448s-200.576-448-448-448c-247.424 0-448 200.576-448 448s200.576 448 448 448zM805.249 695.926l-541.175-541.175c66.897-56.614 153.425-90.751 247.926-90.751 212.077 0 384 171.923 384 384 0 94.501-34.136 181.029-90.751 247.926zM512 832c-212.077 0-384-171.923-384-384 0-94.531 34.158-181.084 90.805-247.99l541.185 541.185c-66.906 56.647-153.459 90.805-247.99 90.805z" />
<glyph unicode="&#xe925;" glyph-name="eye" d="M512 640c-106.039 0-192-85.961-192-192s85.961-192 192-192c106.039 0 192 85.961 192 192s-85.961 192-192 192zM512 576c70.692 0 128-57.308 128-128s-57.308-128-128-128c-70.692 0-128 57.308-128 128s57.308 128 128 128zM512 768c-181.706 0-350.352-101.187-505.259-300.354l-15.28-19.646 15.28-19.646c154.907-199.167 323.553-300.354 505.259-300.354 175.65 0 339.094 94.554 489.723 280.764l30.817 39.236-15.28 19.646c-154.907 199.167-323.553 300.354-505.259 300.354zM528.484 703.676c142.603-5.618 278.575-84.322 408.405-238.421l14.215-17.255-14.215-17.255c-134.823-160.026-276.271-238.745-424.889-238.745l-16.484 0.324c-142.603 5.618-278.575 84.322-408.405 238.421l-14.279 17.255 14.279 17.255c134.823 160.026 276.271 238.745 424.889 238.745l16.484-0.324z" />
<glyph unicode="&#xe926;" glyph-name="filter" d="M960 768v-64h-896v64zM832 576v-64h-640v64zM704 384v-64h-384v64zM576 192v-64h-128v64z" />
<glyph unicode="&#xe927;" glyph-name="flag" d="M256 960h608c26.608 0 40.819-30.026 26.206-50.419l-3.579-4.208-169.379-169.373 169.379-169.373c17.471-17.471 9.077-45.69-12.031-52.905l-5.091-1.278-5.506-0.445h-544v-512h128v-64h-320v64h128v960zM786.688 896h-466.688v-320h466.752l-137.379 137.373c-9.72 9.72-11.88 24.136-6.48 35.944l2.777 4.879 3.703 4.432 137.315 137.373z" />
<glyph unicode="&#xe928;" glyph-name="folder" d="M1024 704v-704h-1024v896h448l128-192h448zM64 640v-576h896v576h-896zM413.696 832h-349.696v-128h435.008l-85.312 128z" />
<glyph unicode="&#xe929;" glyph-name="frequency" d="M236.16 448l220.675 441.224 194.301-712.456 162.746 271.232h146.118v-64h-109.952l-221.19-368.766-189.754 695.55-163.327-326.784h-211.777v64z" />
<glyph unicode="&#xe92a;" glyph-name="fullscreen-exit" d="M448 384v-320h-64l-0.035 210.8-265.337-265.427-45.255 45.255 265.28 265.356-210.653 0.016v64h320zM911.529 892.784l45.255-45.255-271.443-271.417 210.659-0.112v-64h-320v320h64l-0.035-210.768 271.564 271.552z" />
<glyph unicode="&#xe92b;" glyph-name="fullscreen" d="M363.647 344.902l45.255-45.255-235.654-235.583 210.752-0.064v-64h-320v320h64v-210.688l235.647 235.59zM960 896v-320h-64v210.816l-252.118-252.189-45.255 45.255 252.061 252.118h-210.688v64h320z" />
<glyph unicode="&#xe92c;" glyph-name="handshake" d="M338.745 768c33.301 0 65.389-11.759 90.713-32.977l2.666-2.394c43.903 22.974 93.181 35.371 143.875 35.371 82.874 0 164.036-22.644 234.787-65.297l17.466-11.079 77.411-51.56 118.336-0.064v-63.484l-137.689-0.516-93.559 62.373c-64.188 42.792-139.607 65.627-216.752 65.627-67.108 0-131.088-27.369-177.365-75.403l-9.64-10.607-35.070-40.915c-30.665-35.776-28.616-89.129 4.703-122.447 29.574-29.574 76.297-31.545 108.157-5.915l6.588 5.915 80 80c12.497 12.497 32.758 12.497 45.255 0 11.108-11.108 12.342-28.351 3.703-40.823l-3.703-4.432-9.379-9.373 224-224h210.752v-64l-204.528-0.122c-40.529-71.826-103.018-98.301-180.057-77.581l-9.462 2.822-1.833-5.561c-31.251-83.122-104.306-102.084-203.987-55.547l-2.82 1.46-6.427-5.086c-46.735-34.007-97.209-29.542-141.721 13.070l-181.046 181.171c-4.801 4.801-10.97 7.919-17.591 8.974l-5.036 0.399h-69.49v64h69.49c22.278 0 43.758-7.744 60.841-21.741l7.041-6.377 174.060-174.090c29.637-31.869 50.925-31.869 81.342 0.222 9.988 10.538 25.819 13.030 38.562 6.072 92.363-50.437 131.312-37.454 145.144 41.441 3.64 20.763 26.012 32.395 45.099 23.45 62.656-29.366 104.476-22.604 135.025 22.665l4.034 6.471-216.704 216.64-25.309-25.379c-56.68-56.68-148.575-56.68-205.255 0-54.253 54.253-60.014 139.576-15.15 200.417l7.11 8.936 35.070 40.915c10.841 12.648 22.599 24.309 35.134 34.918-8.606 4.794-18.164 7.824-28.074 8.949l-8.717 0.493h-34.745c-41.376 0-82.061-9.996-118.624-29.037l-13.511-7.563-99.001-59.401h-72.863v64l55.168 0.064 83.769 50.216c44.875 26.925 95.577 42.418 147.658 45.247l17.405 0.472h34.745z" />
<glyph unicode="&#xe92d;" glyph-name="home" d="M512.004 900.858l463.675-265.077-31.764-55.564-47.919 27.394 0.004-607.61h-320v384h-128v-384h-320l-0.004 607.738-48.119-27.522-31.753 55.568 463.88 265.074zM511.936 827.136l-319.94-182.854v-580.282h192.004v384h256v-384h192v580.154l-320.064 182.982z" />
<glyph unicode="&#xe92e;" glyph-name="lightning" d="M576 960v-384h256l-384-640v384h-256l384 640zM511.936 728.896l-206.976-344.896h207.040v-216.896l206.912 344.896h-206.912l-0.064 216.896z" />
<glyph unicode="&#xe92f;" glyph-name="link" d="M874.039 810.039c84.562-84.562 87.38-219.912 8.456-307.859l-8.456-8.925-67.882-67.882c-12.497-12.497-32.758-12.497-45.255 0-11.108 11.108-12.342 28.351-3.703 40.823l3.703 4.432 67.882 67.882c62.484 62.484 62.484 163.79 0 226.274-59.985 59.985-155.748 62.384-218.595 7.198l-7.679-7.198-135.765-135.765c-62.484-62.484-62.484-163.79 0-226.274 12.497-12.497 12.497-32.758 0-45.255s-32.758-12.497-45.255 0c-84.562 84.562-87.38 219.912-8.456 307.859l8.456 8.925 135.765 135.765c87.477 87.477 229.306 87.477 316.784 0zM602.51 538.51c84.562-84.562 87.38-219.912 8.456-307.859l-8.456-8.925-135.765-135.765c-87.477-87.477-229.306-87.477-316.784 0-84.562 84.562-87.38 219.912-8.456 307.859l8.456 8.925 67.882 67.882c12.497 12.497 32.758 12.497 45.255 0 11.108-11.108 12.342-28.351 3.703-40.823l-3.703-4.432-67.882-67.882c-62.484-62.484-62.484-163.79 0-226.274 59.985-59.985 155.748-62.384 218.595-7.198l7.679 7.198 135.765 135.765c62.484 62.484 62.484 163.79 0 226.274-12.497 12.497-12.497 32.758 0 45.255s32.758 12.497 45.255 0z" />
<glyph unicode="&#xe930;" glyph-name="location" d="M512 736c-88.366 0-160-71.634-160-160s71.634-160 160-160c88.366 0 160 71.634 160 160s-71.634 160-160 160zM512 672c53.019 0 96-42.981 96-96s-42.981-96-96-96c-53.019 0-96 42.981-96 96s42.981 96 96 96zM512 896c-194.336 0-352-156.162-352-348.952 0-169.583 111.385-348.86 331.042-539.23l20.958-18.163 20.958 18.163c219.657 190.369 331.042 369.647 331.042 539.23 0 192.562-157.777 348.952-352 348.952zM512 832c159.002 0 288-127.864 288-284.952l-0.34-14.793c-6.12-133.634-94.902-280.773-268.616-440.396l-19.044-17.171-19.044 17.171c-180.148 165.535-268.956 317.644-268.956 455.189 0 157.306 128.874 284.952 288 284.952z" />
<glyph unicode="&#xe931;" glyph-name="magnifying-glass" d="M608 960c229.75 0 416-186.25 416-416s-186.25-416-416-416c-103.322 0-197.845 37.667-270.589 100.019l-273.411-273.274-45.255 45.255 273.328 273.348c-62.384 72.752-100.073 167.301-100.073 270.652 0 229.75 186.25 416 416 416zM608 896c-194.404 0-352-157.596-352-352s157.596-352 352-352c194.404 0 352 157.596 352 352s-157.596 352-352 352z" />
<glyph unicode="&#xe932;" glyph-name="map" d="M346.995 831.622l4.269 0.384 5.387-0.324 314.644-62.833 248.943 62.197c18.361 4.59 36.199-7.617 39.29-25.515l0.471-5.529v-640c0-12.848-7.651-24.254-19.107-29.29l-5.131-1.754-258.756-64.577-5.561-0.383-5.719 0.626-312.956 62.626-249.007-62.292c-18.361-4.59-36.199 7.617-39.29 25.515l-0.471 5.529v640c0 12.848 7.651 24.254 19.107 29.29l5.131 1.754 258.756 64.577zM384 760.96v-574.656l256-51.2v574.656l-256 51.2zM320 759.040l-192-48v-574.016l192 48v574.016zM896 759.040l-192-48v-574.016l192 48v574.016z" />
<glyph unicode="&#xe933;" glyph-name="message" d="M1024 960v-704h-448l-320-320v320h-256v704h1024zM63.936 896.064v-576.064h256.064l-0.064-229.44 229.554 229.44h410.446v576l-896 0.064z" />
<glyph unicode="&#xe934;" glyph-name="move" d="M512 941.255l173.255-173.255-45.255-45.255-96.007 96.078v-338.816h338.752l-96 95.993 45.255 45.255 173.255-173.255-173.255-173.255-45.255 45.255 96 96.007h-338.752v-338.688l96.007 95.936 45.255-45.255-173.255-173.255-173.255 173.255 45.255 45.255 95.993-96.064v338.816h-338.752l96.014-96.007-45.255-45.255-173.255 173.255 173.255 173.255 45.255-45.255-96.142-95.993h338.88v338.816l-95.993-96.078-45.255 45.255z" />
<glyph unicode="&#xe935;" glyph-name="news" d="M1024 960v-896c0-67.479-52.216-122.763-118.447-127.649l-9.553-0.351-777.553 0.351c-62.919 4.642-113.191 54.767-118.060 117.623l-0.387 10.026v576h192v320h832zM960 896h-704v-832l-0.723-13.657-1.581-10.63-0.272-1.373c-1.459-7.185-3.525-14.158-6.139-20.856l-2.418-5.787-4.858-9.696-1.225-2.001h657.216c30.297 0 55.677 21.052 62.31 49.325l1.26 7.211 0.431 7.464v832zM192 576h-128v-512c0-30.297 21.052-55.677 49.325-62.31l7.211-1.26 7.464-0.431c32.821 0 59.872 24.707 63.569 56.536l0.431 7.464v512zM832 192v-64h-448v64h448zM832 384v-64h-448v64h448zM640 768v-256h-256v256h256zM832 576v-64h-128v64h128zM576 704h-128v-128h128v128zM832 768v-64h-128v64h128z" />
<glyph unicode="&#xe936;" glyph-name="open-link" d="M448 832v-64h-384v-768h767.936l0.064 512h64v-576h-896v896zM1024 960v-384h-64l-0.035 274.752-457.337-457.379-45.255 45.255 457.28 457.373h-274.653v64z" />
<glyph unicode="&#xe937;" glyph-name="options" d="M832 544c-53.019 0-96-42.981-96-96s42.981-96 96-96c53.019 0 96 42.981 96 96s-42.981 96-96 96zM832 480c17.673 0 32-14.327 32-32s-14.327-32-32-32c-17.673 0-32 14.327-32 32s14.327 32 32 32zM512 544c-53.019 0-96-42.981-96-96s42.981-96 96-96c53.019 0 96 42.981 96 96s-42.981 96-96 96zM512 480c17.673 0 32-14.327 32-32s-14.327-32-32-32c-17.673 0-32 14.327-32 32s14.327 32 32 32zM192 544c-53.019 0-96-42.981-96-96s42.981-96 96-96c53.019 0 96 42.981 96 96s-42.981 96-96 96zM192 480c17.673 0 32-14.327 32-32s-14.327-32-32-32c-17.673 0-32 14.327-32 32s14.327 32 32 32z" />
<glyph unicode="&#xe938;" glyph-name="page" d="M960 960v-1024h-896v1024h896zM896 896h-768v-896h768v896zM512 768v-64h-256v64zM768 576v-64h-512v64zM768 384v-64h-512v64zM768 192v-64h-512v64z" />
<glyph unicode="&#xe939;" glyph-name="pie-chart" d="M448 832v-448h448c0-247.424-200.576-448-448-448s-448 200.576-448 448c0 242.269 192.306 439.622 432.598 447.74l15.402 0.26zM384 762.624l-6.55-1.091c-178.38-33.125-313.45-189.555-313.45-377.533 0-212.077 171.923-384 384-384 187.978 0 344.408 135.069 377.533 313.45l1.027 6.55h-442.56v442.624zM512 896c242.269 0 439.622-192.306 447.74-432.598l0.26-15.402h-448v448zM576 826.624v-314.624h314.56l-1.027 6.55c-28.878 155.511-151.472 278.105-306.983 306.983l-6.55 1.091z" />
<glyph unicode="&#xe93b;" glyph-name="plus" d="M544 800v-320h320v-64h-320v-320h-64v320h-320v64h320v320z" />
<glyph unicode="&#xe93c;" glyph-name="popup" d="M1024 960v-896l-128 0.064v-128.064h-896v896h128v128h896zM128 768h-64v-767.936h768v64l-704-0.064v704zM192 128.064h768l-0.064 768h-767.936v-768zM768 704v-320h-64l-0.035 210.752-297.337-297.379-45.255 45.255 297.408 297.437-210.781-0.064v64z" />
<glyph unicode="&#xe93d;" glyph-name="radio-tower" d="M512 499.2l208-499.2h-416l208 499.2zM512 332.8l-112.064-268.8h224.064l-112 268.8zM172.589 915.411l45.255-45.255c-158.926-158.926-162.381-414.45-10.365-577.577l10.365-10.736-45.255-45.255c-183.776 183.776-187.38 479.497-10.81 667.663l10.81 11.159zM851.411 915.411c183.776-183.776 187.38-479.497 10.81-667.663l-10.81-11.159-45.255 45.255c158.926 158.926 162.381 414.45 10.365 577.577l-10.365 10.736 45.255 45.255zM285.726 802.274l45.255-45.255c-96.945-96.945-99.882-252.298-8.813-352.782l8.813-9.256-45.255-45.255c-121.679 121.679-124.881 316.971-9.606 442.524l9.606 10.024zM738.274 802.274c121.679-121.679 124.881-316.971 9.606-442.524l-9.606-10.024-45.255 45.255c96.945 96.945 99.882 252.298 8.813 352.782l-8.813 9.256 45.255 45.255zM398.863 689.137l45.255-45.255c-35.285-35.285-37.361-91.204-6.227-128.916l6.227-6.848-45.255-45.255c-59.985 59.985-62.384 155.748-7.198 218.595l7.198 7.679zM625.137 689.137c59.985-59.985 62.384-155.748 7.198-218.595l-7.198-7.679-45.255 45.255c35.285 35.285 37.361 91.204 6.227 128.916l-6.227 6.848 45.255 45.255z" />
<glyph unicode="&#xe93e;" glyph-name="recycle" d="M928 480c0-229.75-186.25-416-416-416-126.397 0-242.539 56.893-320.028 150.133l0.028-150.133h-64v288h288v-64l-199.080-0.039c63.976-98.237 173.953-159.961 295.080-159.961 189.663 0 344.291 150.002 351.72 337.843l0.28 14.157h64zM896 896v-288h-288v64l199.1 0.021c-63.88 98.106-173.838 159.979-295.1 159.979-189.663 0-344.291-150.002-351.72-337.843l-0.28-14.157h-64c0 229.75 186.25 416 416 416 126.533 0 242.662-57.019 320.072-150.178l-0.072 150.178h64z" />
<glyph unicode="&#xe93f;" glyph-name="refresh" d="M896 864v-288h-288v64l199.113-0.011c-63.961 98.251-173.952 160.011-295.113 160.011-194.404 0-352-157.596-352-352s157.596-352 352-352c189.663 0 344.291 150.002 351.72 337.843l0.28 14.157h64c0-229.75-186.25-416-416-416s-416 186.25-416 416c0 229.75 186.25 416 416 416 126.432 0 242.589-56.925 320.070-150.182l-0.070 150.182h64z" />
<glyph unicode="&#xe940;" glyph-name="route" d="M224 288c70.692 0 128-57.308 128-128s-57.308-128-128-128c-70.692 0-128 57.308-128 128s57.308 128 128 128zM224 224c-35.346 0-64-28.654-64-64s28.654-64 64-64c35.346 0 64 28.654 64 64s-28.654 64-64 64zM309.689 358.665l52.414-36.726-17.501-25.728-16.78-26.203-54.37 33.763 17.738 27.698 18.499 27.195zM392.647 463.896l47.949-42.39-20.287-23.596-19.626-24.146-50.217 39.676 20.742 25.519 21.439 24.937zM485.978 558.297l42.934-47.462-22.788-21.193-22.195-21.815-45.488 45.020 23.455 23.053 24.082 22.397zM588.608 641.268l37.412-51.926-24.992-18.537-24.471-19.222-40.227 49.778 25.863 20.316 26.415 19.592zM800 864c70.692 0 128-57.308 128-128s-57.308-128-128-128c-34.842 0-66.433 13.921-89.513 36.505l-6.52-3.789-26.448-16.397-34.475 53.921 27.96 17.334 6.342 3.711c-3.476 11.63-5.344 23.955-5.344 36.715 0 70.692 57.308 128 128 128zM800 800c-35.346 0-64-28.654-64-64s28.654-64 64-64c35.346 0 64 28.654 64 64s-28.654 64-64 64z" />
<glyph unicode="&#xe941;" glyph-name="rows" d="M960 256v-256h-896v256h896zM896 192h-768v-128h768v128zM960 576v-256h-896v256h896zM896 512h-768v-128h768v128zM960 896v-256h-896v256h896zM896 832h-768v-128h768v128z" />
<glyph unicode="&#xe942;" glyph-name="satellite" d="M920.626 821.961l-90.464-90.464 67.837-67.928-180.974-180.974 271.484-271.574-226.274-226.274-271.484 271.574-94.397-94.461c15.75-33.013 11.564-73.163-12.559-102.383l-6.227-6.848-67.882-67.882-113.137 113.137-90.51-90.51-45.255 45.255 90.51 90.51-113.137 113.137 67.882 67.882c29.561 29.561 73.605 35.813 109.292 18.756l94.4 94.426-271.574 271.484 226.274 226.274 271.574-271.484 180.974 180.974 67.928-67.837 90.464 90.464 45.255-45.255zM332.313 143.139l-135.765 135.765c-11.108 11.108-28.351 12.342-40.823 3.703l-4.432-3.703-22.627-22.627 181.019-181.019 22.627 22.627c9.72 9.72 11.88 24.136 6.48 35.944l-2.777 4.879-3.703 4.432zM264.431 301.531l90.51-90.51 452.548 452.548-90.51 90.51-452.548-452.548zM897.998 211.021l-226.274 226.274-135.765-135.765 226.274-226.274 135.765 135.765zM490.705 618.315l-226.274 226.274-135.765-135.765 226.274-226.274 135.765 135.765z" />
<glyph unicode="&#xe943;" glyph-name="service" d="M160 493.255l173.255-173.255-45.255-45.255-100.743 100.757 0.045-309.552h639.994l0.018 255.991h64v-288c0-15.709-11.32-28.775-26.248-31.484l-5.752-0.516h-704c-15.709 0-28.775 11.32-31.484 26.248l-0.516 5.752-0.057 332.153-91.257-91.349-45.255 45.255 173.255 173.255zM859.314 884.686c15.709 0 28.775-11.32 31.484-26.248l0.516-5.752-0.057-332.16 100.743 100.729 45.255-45.255-173.255-173.255-173.255 173.255 45.255 45.255 91.257-91.257 0.068 290.679h-639.994l-0.018-255.991h-64v288c0 15.709 11.32 28.775 26.248 31.484l5.752 0.516h704z" />
<glyph unicode="&#xe944;" glyph-name="sign-in" d="M960 960v-1024h-768v320h64v-255.936h639.936v895.936h-639.936v-192h-64v256zM512 717.255l237.255-237.255-237.255-237.255-45.255 45.255 159.943 160.007-562.688-0.007v64l562.816 0.007-160.071 159.993z" />
<glyph unicode="&#xe945;" glyph-name="sign-up" d="M768 384c138.327 0 249.103-108.754 255.69-246.364l0.31-12.983v-108.013c0-41.678-31.655-76.085-72.234-80.223l-8.228-0.417h-607.075c-41.668 0-75.927 31.802-80.047 72.408l-0.415 8.232v108.013c0 143.689 113.35 259.347 256 259.347 17.673 0 32-14.327 32-32s-14.327-32-32-32c-103.19 0-185.901-80.635-191.678-183.795l-0.322-11.552v-108.013c0-7.866 5.458-14.473 12.706-16.2l3.756-0.44h607.075c7.743 0 14.307 5.483 16.025 12.829l0.438 3.811v108.013c0 108.629-84.988 195.347-192 195.347-17.673 0-32 14.327-32 32s14.327 32 32 32zM640 896c124.901 0 224-115.616 224-256s-99.099-256-224-256c-124.901 0-224 115.616-224 256s99.099 256 224 256zM640 832c-87.177 0-160-84.961-160-192s72.823-192 160-192c87.177 0 160 84.961 160 192s-72.823 192-160 192zM224 800v-128h128v-64h-128v-128h-64v128h-128v64h128v128h64z" />
<glyph unicode="&#xe946;" glyph-name="slot" d="M224 192h64v-128h384v128h64v-128h192v-64h-896v64h192v128zM512 832l-0.064-498.752 160.064 160.007 45.255-45.255-237.255-237.255-237.255 237.255 45.255 45.255 159.936-160.007 0.064 498.752h64z" />
<glyph unicode="&#xe947;" glyph-name="sort-down" d="M832 768l-0.007-626.752 160.007 160.007 45.255-45.255-237.255-237.255-237.255 237.255 45.255 45.255 159.993-160.007 0.007 626.752zM384 448v-64h-384v64zM128 64v-64h-128v64zM640 832v-64h-640v64zM512 640v-64h-512v64zM256 256v-64h-256v64z" />
<glyph unicode="&#xe948;" glyph-name="sort-up" d="M384 512v-64h-384v64zM640 128v-64h-640v64zM128 896v-64h-128v64zM256 704v-64h-256v64zM512 320v-64h-512v64zM800 877.255l237.255-237.255-45.255-45.255-160.007 160.078 0.007-626.823h-64l-0.007 626.823-159.993-160.078-45.255 45.255z" />
<glyph unicode="&#xe949;" glyph-name="stop-watch" d="M512 800c103.352 0 197.9-37.689 270.652-100.073l58.72 58.701c12.497 12.497 32.758 12.497 45.255 0 11.108-11.108 12.342-28.351 3.703-40.823l-3.703-4.432-58.701-58.72c62.384-72.752 100.073-167.301 100.073-270.652 0-229.75-186.25-416-416-416s-416 186.25-416 416c0 229.75 186.25 416 416 416zM512 736c-194.404 0-352-157.596-352-352s157.596-352 352-352c194.404 0 352 157.596 352 352s-157.596 352-352 352zM297.373 598.627c11.108 11.108 28.351 12.342 40.823 3.703l4.432-3.703 197.426-197.426c12.497-12.497 12.497-32.758 0-45.255-11.108-11.108-28.351-12.342-40.823-3.703l-4.432 3.703-197.426 197.426c-12.497 12.497-12.497 32.758 0 45.255zM640 896c17.673 0 32-14.327 32-32 0-15.709-11.32-28.775-26.248-31.484l-5.752-0.516h-256c-17.673 0-32 14.327-32 32 0 15.709 11.32 28.775 26.248 31.484l5.752 0.516h256z" />
<glyph unicode="&#xe94a;" glyph-name="table" d="M1024 896v-896h-1024v896h1024zM320 192h-256v-127.936l256-0.064v128zM960 384h-256v-128h256v-64h-256v-128l256 0.064v319.936zM640 192h-256v-128h256v128zM320 384h-256v-128h256v128zM640 384h-256v-128h256v128zM320 576h-256v-128h256v128zM640 576h-256v-128h256v128zM960 576h-256v-128h256v128zM959.936 832h-895.936v-192h896l-0.064 192z" />
<glyph unicode="&#xe94b;" glyph-name="tag" d="M1037.442 960v-444.784l-575.058-575.058-444.784 444.784 575.058 575.058h444.784zM973.506 896.064h-354.304l-511.104-511.104 354.304-354.304 511.104 511.104v354.304zM768 832c70.692 0 128-57.308 128-128s-57.308-128-128-128c-70.692 0-128 57.308-128 128s57.308 128 128 128zM768 768c-35.346 0-64-28.654-64-64s28.654-64 64-64c35.346 0 64 28.654 64 64s-28.654 64-64 64z" />
<glyph unicode="&#xe94c;" glyph-name="team" d="M768 320c138.327 0 249.103-108.754 255.69-246.364l0.31-12.983v-44.013c0-41.678-31.655-76.085-72.234-80.223l-8.228-0.417h-543.075c-41.668 0-75.927 31.802-80.047 72.408l-0.415 8.232v44.013c0 143.689 113.35 259.347 256 259.347 17.673 0 32-14.327 32-32s-14.327-32-32-32c-103.19 0-185.901-80.635-191.678-183.795l-0.322-11.552v-44.013c0-7.866 5.458-14.473 12.706-16.2l3.756-0.44h543.075c7.743 0 14.307 5.483 16.025 12.829l0.438 3.811v44.013c0 108.629-84.988 195.347-192 195.347-17.673 0-32 14.327-32 32s14.327 32 32 32zM256 576c17.673 0 32-14.327 32-32s-14.327-32-32-32c-107.012 0-192-86.718-192-195.347 0-7.866 5.458-14.473 12.706-16.2l3.756-0.44h243.444c17.673 0 32-14.327 32-32 0-15.709-11.32-28.775-26.248-31.484l-5.752-0.516h-243.444c-44.446 0-80.462 36.183-80.462 80.64 0 143.689 113.35 259.347 256 259.347zM672 704c106.039 0 192-85.962 192-192s-85.961-192-192-192c-106.039 0-192 85.962-192 192s85.961 192 192 192zM672 640c-70.693 0-128-57.308-128-128s57.307-128 128-128c70.693 0 128 57.308 128 128s-57.307 128-128 128zM384 576c18.815 0 37.342-2.013 55.358-5.973 17.261-3.794 28.179-20.862 24.385-38.123s-20.862-28.179-38.123-24.385c-13.505 2.968-27.426 4.481-41.62 4.481-17.673 0-32 14.327-32 32s14.327 32 32 32zM320 896c88.366 0 160-71.635 160-160s-71.634-160-160-160c-88.366 0-160 71.635-160 160s71.634 160 160 160zM320 832c-53.020 0-96-42.981-96-96s42.98-96 96-96c53.020 0 96 42.981 96 96s-42.98 96-96 96z" />
<glyph unicode="&#xe94d;" glyph-name="telescope" d="M886.69 952.591l131.336-360.842-415.275-151.128c3.416-11.537 5.25-23.754 5.25-36.399 0-47.209-25.557-88.448-63.59-110.638l137.5-326.658-58.985-24.836-140.744 334.213-4.377-0.063-140.73-334.15-58.985 24.836 137.52 326.647c-38.044 22.187-63.61 63.432-63.61 110.649 0 6.651 0.507 13.184 1.485 19.562l-260.419-94.761-87.557 240.561 299.776 109.151-19.999 54.963 601.403 218.893zM480 468.221c-35.346 0-64-28.654-64-64s28.654-64 64-64c35.346 0 64 28.654 64 64s-28.654 64-64 64zM327.174 618.575l-239.669-87.214 43.779-120.281 239.666 87.239-43.776 120.256zM848.41 870.615l-481.123-175.114 63.048-173.271c15.271 6.435 32.052 9.992 49.664 9.992 34.464 0 65.747-13.621 88.759-35.773l367.209 133.605-87.557 240.561z" />
<glyph unicode="&#xe94f;" glyph-name="trash" d="M704 960v-128h256v-64h-64v-832h-768v832h-64v64h256v128h384zM832 768h-640v-768h640v768zM640 896h-256v-64h256v64zM704 640v-512h-64v512zM384 640v-512h-64v512zM544 640v-512h-64v512z" />
<glyph unicode="&#xe950;" glyph-name="user" d="M512 960c-142.407 0-256-129.822-256-288s113.593-288 256-288c142.407 0 256 129.822 256 288s-113.593 288-256 288zM512 896c105.018 0 192-99.409 192-224s-86.982-224-192-224c-105.018 0-192 99.409-192 224s86.982 224 192 224zM736 384c138.327 0 249.103-108.754 255.69-246.364l0.31-12.983v-108.013c0-41.678-31.655-76.085-72.234-80.223l-8.228-0.417h-799.075c-41.668 0-75.927 31.802-80.047 72.408l-0.415 8.232v108.013c0 143.689 113.35 259.347 256 259.347 17.673 0 32-14.327 32-32s-14.327-32-32-32c-103.19 0-185.901-80.635-191.678-183.795l-0.322-11.552v-108.013c0-7.866 5.458-14.473 12.706-16.2l3.756-0.44h799.075c7.743 0 14.307 5.483 16.025 12.829l0.438 3.811v108.013c0 108.629-84.988 195.347-192 195.347-17.673 0-32 14.327-32 32s14.327 32 32 32z" />
<glyph unicode="&#xe952;" glyph-name="warning" d="M479.752 823.774c-9.536-5.563-17.471-13.498-23.034-23.034l-392.287-672.492c-17.81-30.531-7.497-69.72 23.034-87.53 9.788-5.71 20.916-8.718 32.248-8.718h784.574c35.346 0 64 28.654 64 64 0 11.331-3.009 22.46-8.718 32.248l-392.287 672.492c-16.538 28.351-51.509 39.268-80.866 26.423l-6.664-3.389zM119.713 96l392.287 672.448 392.287-672.448h-784.574zM544 352h-64v192h64zM544 224h-64v64h64z" />
</font>
</defs>
</svg>
